<svg width="128" height="104" viewBox="0 0 128 104" fill="none" xmlns="http://www.w3.org/2000/svg">
<path d="M96.9752 14.6752V20.7002H37.8251C37.8251 20.7002 33.9001 21.3002 33.9001 16.7752V5.6252C33.9001 5.6252 33.3001 2.4502 37.0751 2.4502H55.9251L60.7502 10.4502H93.3502C93.3502 10.4502 96.9752 11.0502 96.9752 14.6752Z" fill="#E2EDFF"/>
<path d="M31.9517 61.7752C31.3017 61.7752 30.1767 61.6502 29.2517 60.8502C28.3267 60.0502 27.8767 58.8502 27.8767 57.2252V9.90019C27.8267 9.60019 27.7017 8.30019 28.5517 7.27519C29.2017 6.47519 30.2517 6.0752 31.6517 6.0752H50.5017C50.7017 6.0752 50.9017 6.17519 51.0267 6.37519L55.6767 14.0752H87.9267C87.9517 14.0752 88.0017 14.0752 88.0267 14.0752C89.4517 14.3252 92.1517 15.6252 92.1517 18.9002V61.1502C92.1517 61.4752 91.8767 61.7502 91.5517 61.7502H32.4267C32.3517 61.7752 32.1767 61.7752 31.9517 61.7752ZM31.6517 7.30019C30.6267 7.30019 29.9017 7.55019 29.4767 8.05019C28.9017 8.75019 29.0767 9.7502 29.0767 9.7502C29.0767 9.77519 29.0767 9.8252 29.0767 9.8502V57.2252C29.0767 58.4752 29.4017 59.4002 30.0517 59.9502C30.9767 60.7502 32.3017 60.5502 32.3017 60.5502C32.3267 60.5502 32.3517 60.5502 32.4017 60.5502H90.9517V18.9002C90.9517 16.0002 88.2767 15.3502 87.8767 15.2752H55.3267C55.1267 15.2752 54.9267 15.1752 54.8017 14.9752L50.1517 7.27519H31.6517V7.30019Z" fill="#757C84"/>
<path d="M80.2242 103.8C103.158 103.8 121.749 100.207 121.749 95.775C121.749 91.3429 103.158 87.75 80.2242 87.75C57.2906 87.75 38.6992 91.3429 38.6992 95.775C38.6992 100.207 57.2906 103.8 80.2242 103.8Z" fill="#F1F1F1"/>
<path d="M100.575 80.4508C100.425 80.4508 100.275 80.4008 100.15 80.2758L98.3504 78.4758C98.1254 78.2508 98.1254 77.8508 98.3504 77.6258C98.5754 77.4008 98.9754 77.4008 99.2004 77.6258L101 79.4258C101.225 79.6508 101.225 80.0508 101 80.2758C100.9 80.4008 100.75 80.4508 100.575 80.4508Z" fill="#757C84"/>
<path d="M103.601 78.0504C103.451 78.0504 103.301 78.0004 103.176 77.8754L101.376 76.0754C101.151 75.8504 101.151 75.4504 101.376 75.2254C101.601 75.0004 102.001 75.0004 102.226 75.2254L104.026 77.0254C104.251 77.2504 104.251 77.6504 104.026 77.8754C103.926 78.0004 103.751 78.0504 103.601 78.0504Z" fill="#757C84"/>
<path d="M83.7008 83.4758C98.6953 83.4758 110.851 71.3203 110.851 56.3258C110.851 41.3312 98.6953 29.1758 83.7008 29.1758C68.7062 29.1758 56.5508 41.3312 56.5508 56.3258C56.5508 71.3203 68.7062 83.4758 83.7008 83.4758Z" fill="#E2EDFF"/>
<path d="M79.4762 83.4758C94.4707 83.4758 106.626 71.3203 106.626 56.3258C106.626 41.3312 94.4707 29.1758 79.4762 29.1758C64.4816 29.1758 52.3262 41.3312 52.3262 56.3258C52.3262 71.3203 64.4816 83.4758 79.4762 83.4758Z" fill="white"/>
<path d="M79.4765 84.0752C64.1766 84.0752 51.7266 71.6252 51.7266 56.3252C51.7266 41.0252 64.1766 28.5752 79.4765 28.5752C94.7765 28.5752 107.227 41.0252 107.227 56.3252C107.227 71.6252 94.7765 84.0752 79.4765 84.0752ZM79.4765 29.7752C64.8266 29.7752 52.9266 41.6752 52.9266 56.3252C52.9266 70.9752 64.8266 82.8752 79.4765 82.8752C94.1265 82.8752 106.027 70.9752 106.027 56.3252C106.027 41.6752 94.1015 29.7752 79.4765 29.7752Z" fill="#757C84"/>
<path d="M79.4742 79.8508C66.4992 79.8508 55.9492 69.3008 55.9492 56.3258C55.9492 43.3508 66.4992 32.8008 79.4742 32.8008C92.4492 32.8008 102.999 43.3508 102.999 56.3258C102.999 69.3008 92.4492 79.8508 79.4742 79.8508ZM79.4742 34.0008C67.1742 34.0008 57.1492 44.0258 57.1492 56.3258C57.1492 68.6508 67.1742 78.6508 79.4742 78.6508C91.7992 78.6508 101.799 68.6258 101.799 56.3258C101.799 44.0008 91.7742 34.0008 79.4742 34.0008Z" fill="#757C84"/>
<path d="M125.224 51.1008C123.699 51.1008 122.449 49.8508 122.449 48.3258C122.449 46.8008 123.699 45.5508 125.224 45.5508C126.749 45.5508 127.999 46.8008 127.999 48.3258C127.999 49.8508 126.749 51.1008 125.224 51.1008ZM125.224 46.2758C124.099 46.2758 123.174 47.2008 123.174 48.3258C123.174 49.4508 124.099 50.3758 125.224 50.3758C126.349 50.3758 127.274 49.4508 127.274 48.3258C127.274 47.2008 126.349 46.2758 125.224 46.2758Z" fill="#757C84"/>
<path d="M125.225 49.525C125.888 49.525 126.425 48.9877 126.425 48.325C126.425 47.6623 125.888 47.125 125.225 47.125C124.563 47.125 124.025 47.6623 124.025 48.325C124.025 48.9877 124.563 49.525 125.225 49.525Z" fill="#E2EDFF"/>
<path d="M91.5254 25.0496H28.8254C28.5004 25.0496 28.2004 24.8246 28.1754 24.4996C28.1504 24.1496 28.4254 23.8496 28.7754 23.8496H91.5254C91.8004 23.8496 92.0754 24.0246 92.1254 24.2996C92.2254 24.6746 91.9254 25.0496 91.5254 25.0496Z" fill="#757C84"/>
<path d="M5.85195 13.4754C5.52695 13.4754 5.25195 13.2004 5.25195 12.8754V5.62539C5.25195 5.30039 5.52695 5.02539 5.85195 5.02539C6.17695 5.02539 6.45195 5.30039 6.45195 5.62539V12.8754C6.45195 13.2004 6.17695 13.4754 5.85195 13.4754Z" fill="#757C84"/>
<path d="M9.45156 9.85039H2.20156C1.87656 9.85039 1.60156 9.57539 1.60156 9.25039C1.60156 8.92539 1.87656 8.65039 2.20156 8.65039H9.45156C9.77656 8.65039 10.0516 8.92539 10.0516 9.25039C10.0516 9.57539 9.80156 9.85039 9.45156 9.85039Z" fill="#757C84"/>
<path d="M67.25 54.0502C67.1 54.0502 66.95 54.0002 66.825 53.8752C66.6 53.6502 66.6 53.2502 66.825 53.0252L71.95 47.9002C72.175 47.6752 72.575 47.6752 72.8 47.9002C73.025 48.1252 73.025 48.5252 72.8 48.7502L67.675 53.8752C67.55 54.0002 67.4 54.0502 67.25 54.0502Z" fill="#757C84"/>
<path d="M72.375 54.0502C72.225 54.0502 72.075 54.0002 71.95 53.8752L66.825 48.7502C66.6 48.5252 66.6 48.1252 66.825 47.9002C67.05 47.6752 67.45 47.6752 67.675 47.9002L72.8 53.0252C73.025 53.2502 73.025 53.6502 72.8 53.8752C72.675 54.0002 72.525 54.0502 72.375 54.0502Z" fill="#757C84"/>
<path d="M87.1758 54.0502C87.0258 54.0502 86.8758 54.0002 86.7508 53.8752C86.5258 53.6502 86.5258 53.2502 86.7508 53.0252L91.8758 47.9002C92.1008 47.6752 92.5008 47.6752 92.7258 47.9002C92.9508 48.1252 92.9508 48.5252 92.7258 48.7502L87.6008 53.8752C87.4758 54.0002 87.3258 54.0502 87.1758 54.0502Z" fill="#757C84"/>
<path d="M92.2758 54.0502C92.1258 54.0502 91.9758 54.0002 91.8508 53.8752L86.7508 48.7502C86.5258 48.5252 86.5258 48.1252 86.7508 47.9002C86.9758 47.6752 87.3758 47.6752 87.6008 47.9002L92.7258 53.0252C92.9508 53.2502 92.9508 53.6502 92.7258 53.8752C92.6008 54.0002 92.4508 54.0502 92.2758 54.0502Z" fill="#757C84"/>
<path d="M116.875 12.2752C116.55 12.2752 116.275 12.0002 116.275 11.6752V0.800196C116.275 0.475196 116.55 0.200195 116.875 0.200195C117.2 0.200195 117.475 0.475196 117.475 0.800196V11.6752C117.475 12.0002 117.225 12.2752 116.875 12.2752Z" fill="#757C84"/>
<path d="M122.327 6.825H111.452C111.127 6.825 110.852 6.55 110.852 6.225C110.852 5.9 111.127 5.625 111.452 5.625H122.327C122.652 5.625 122.927 5.9 122.927 6.225C122.927 6.55 122.652 6.825 122.327 6.825Z" fill="#757C84"/>
<path d="M75.25 65.376C75.25 65.376 75.85 61.751 80.075 61.751C80.075 61.751 84.9 61.751 84.9 65.376" stroke="white" stroke-width="0.78125" stroke-miterlimit="10"/>
<path d="M75.9007 65.2504H75.8757C75.5007 65.2754 75.2007 64.9004 75.3007 64.5254C75.6257 63.3254 76.7257 61.1504 80.3257 61.1504C82.0757 61.1504 84.5757 61.7004 85.1507 64.7004C85.2257 65.0504 84.9507 65.3754 84.6007 65.3754H84.5757C84.3007 65.3754 84.0507 65.1754 84.0257 64.9004C83.6757 62.4004 80.5007 62.3754 80.3257 62.3754C77.4507 62.3754 76.6507 64.0504 76.4257 64.8504C76.3507 65.0504 76.1507 65.2254 75.9007 65.2504Z" fill="#757C84"/>
<path d="M119.477 95.7754C117.552 97.7004 114.452 97.7004 112.527 95.7754L102.202 85.4504C100.277 83.5254 100.277 80.4254 102.202 78.5004C104.127 76.5754 107.227 76.5754 109.152 78.5004L119.477 88.8254C121.402 90.7504 121.402 93.8504 119.477 95.7754Z" fill="white"/>
<path d="M116 97.8004C114.6 97.8004 113.175 97.2754 112.1 96.2004L101.775 85.8754C100.725 84.8254 100.15 83.4504 100.15 81.9754C100.15 80.5004 100.725 79.1254 101.775 78.0754C103.925 75.9254 107.425 75.9254 109.575 78.0754L119.9 88.4004C120.95 89.4504 121.525 90.8254 121.525 92.3004C121.525 93.7754 120.95 95.1504 119.9 96.2004C118.825 97.2754 117.425 97.8004 116 97.8004ZM105.675 77.6754C104.575 77.6754 103.475 78.1004 102.625 78.9254C101.8 79.7504 101.375 80.8254 101.375 81.9754C101.375 83.1254 101.825 84.2004 102.625 85.0254L112.95 95.3504C114.625 97.0254 117.35 97.0254 119.025 95.3504C119.85 94.5254 120.275 93.4504 120.275 92.3004C120.275 91.1504 119.825 90.0754 119.025 89.2504L108.7 78.9254C107.9 78.1004 106.775 77.6754 105.675 77.6754Z" fill="#757C84"/>
<path d="M0.150676 62.5746L8.25068 77.9246C8.60068 78.5996 9.42568 78.8746 10.0757 78.4996L21.4507 72.3996C22.1007 72.0496 22.3507 71.2246 21.9757 70.5496L12.9257 54.2246L0.700677 60.7496C0.0506765 61.0996 -0.199324 61.9246 0.150676 62.5746Z" fill="#E2EDFF"/>
<path d="M12.7515 76.7505C12.5765 76.7505 12.4015 76.7255 12.2265 76.6755C11.7765 76.5255 11.3765 76.2255 11.1765 75.8005L3.67646 61.3505C3.22646 60.4755 3.55146 59.4005 4.42646 58.9505L13.6765 54.0005C13.7765 53.9505 13.9015 53.9255 14.0015 53.9755L18.5515 55.2505C18.6765 55.2755 18.7765 55.3505 18.8265 55.4755L25.7265 68.0505C25.9515 68.4755 26.0015 68.9505 25.8765 69.4255C25.7515 69.9005 25.4265 70.2755 25.0015 70.5005L13.6265 76.6005C13.3265 76.6755 13.0515 76.7505 12.7515 76.7505ZM4.45146 60.9005L11.9515 75.3505C12.0515 75.5505 12.2515 75.7255 12.4765 75.8005C12.7015 75.8755 12.9515 75.8505 13.1515 75.7255L24.5265 69.6255C24.7265 69.5005 24.9015 69.3255 24.9515 69.1005C25.0265 68.8755 25.0015 68.6255 24.8765 68.4255L18.0765 56.0255L13.8765 54.8505L4.80146 59.7005C4.40146 59.9505 4.25146 60.4755 4.45146 60.9005Z" fill="#757C84"/>
<path d="M15.6016 58.1005C15.5516 58.1005 15.5016 58.1005 15.4766 58.0755C15.3516 58.0505 15.2766 57.9505 15.2016 57.8505L13.4516 54.5755C13.3766 54.4005 13.3766 54.2005 13.5016 54.0755C13.6266 53.9255 13.8266 53.8755 14.0016 53.9505L18.7766 55.5755C18.9516 55.6255 19.0766 55.7755 19.0766 55.9755C19.1016 56.1505 19.0016 56.3255 18.8516 56.4005L15.8266 58.0255C15.7516 58.0755 15.6766 58.1005 15.6016 58.1005ZM14.8016 55.1755L15.8016 57.0255L17.5266 56.1005L14.8016 55.1755Z" fill="#757C84"/>
<path d="M7.77477 63.6253C7.59977 63.6253 7.44977 63.5253 7.37477 63.3753C7.24977 63.1503 7.34977 62.8753 7.57477 62.7753L13.6498 59.6753C13.8748 59.5753 14.1498 59.6503 14.2498 59.8753C14.3748 60.1003 14.2748 60.3753 14.0498 60.4753L7.99977 63.5753C7.92477 63.6003 7.84977 63.6253 7.77477 63.6253Z" fill="#757C84"/>
<path d="M10.8021 69.2757C10.6271 69.2757 10.4771 69.1757 10.4021 69.0257C10.2771 68.8007 10.3771 68.5257 10.6021 68.4257L18.0521 64.6257C18.2771 64.5007 18.5521 64.6007 18.6521 64.8257C18.7771 65.0507 18.6771 65.3257 18.4521 65.4257L11.0021 69.2257C10.9521 69.2507 10.8771 69.2757 10.8021 69.2757Z" fill="#757C84"/>
<path d="M12.2513 71.9749C12.0763 71.9749 11.9263 71.8749 11.8513 71.7249C11.7263 71.4999 11.8263 71.2249 12.0513 71.1249L19.8513 67.1499C20.0763 67.0499 20.3513 67.1249 20.4513 67.3499C20.5763 67.5749 20.4763 67.8499 20.2513 67.9499L12.4513 71.9249C12.3763 71.9499 12.3263 71.9749 12.2513 71.9749Z" fill="#757C84"/>
<path d="M9.10094 66.4496C8.92594 66.4496 8.77594 66.3496 8.70094 66.1996C8.57594 65.9746 8.67594 65.6996 8.90094 65.5996L16.3509 61.7996C16.5759 61.6746 16.8509 61.7746 16.9509 61.9996C17.0759 62.2246 16.9759 62.4996 16.7509 62.5996L9.30094 66.3996C9.25094 66.4496 9.17594 66.4496 9.10094 66.4496Z" fill="#757C84"/>
</svg>
