<svg width="108" height="128" viewBox="0 0 108 128" fill="none" xmlns="http://www.w3.org/2000/svg">
<ellipse rx="5.45184" ry="5.45206" transform="matrix(0 -1 -1 0 85.1593 37.1087)" fill="#EB4137"/>
<ellipse rx="4.45624" ry="4.45641" transform="matrix(0 -1 -1 0 82.401 24.3914)" fill="#EB4137"/>
<ellipse rx="3.16449" ry="3.16461" transform="matrix(0 -1 -1 0 75.7163 15.4791)" fill="#EB4137"/>
<ellipse rx="1.87557" ry="1.93488" transform="matrix(0 -1 -1 0 68.2761 10.6733)" fill="#EB4137"/>
<ellipse rx="1.46661" ry="1.40744" transform="matrix(0 -1 -1 0 62.4734 8.85956)" fill="#EB4137"/>
<ellipse cx="82.4017" cy="49.8319" rx="4.45623" ry="4.45642" transform="rotate(-90 82.4017 49.8319)" fill="#EB4137"/>
<ellipse cx="75.7174" cy="58.7447" rx="3.16449" ry="3.16463" transform="rotate(-90 75.7174 58.7447)" fill="#EB4137"/>
<ellipse cx="68.2708" cy="63.5502" rx="1.87557" ry="1.93488" transform="rotate(-90 68.2708 63.5502)" fill="#EB4137"/>
<ellipse cx="62.4738" cy="65.3635" rx="1.46661" ry="1.40743" transform="rotate(-90 62.4738 65.3635)" fill="#EB4137"/>
<ellipse cx="47.1083" cy="12.7858" rx="5.45206" ry="5.45184" fill="#265FFF"/>
<ellipse cx="59.8314" cy="15.5412" rx="4.45641" ry="4.45624" fill="#265FFF"/>
<ellipse cx="68.7427" cy="22.2202" rx="3.16461" ry="3.16449" fill="#265FFF"/>
<ellipse cx="73.5495" cy="29.6662" rx="1.87563" ry="1.9348" fill="#265FFF"/>
<ellipse cx="75.3671" cy="35.4728" rx="1.46667" ry="1.40738" fill="#265FFF"/>
<ellipse rx="4.45641" ry="4.45624" transform="matrix(-1 0 0 1 34.3893 15.5412)" fill="#265FFF"/>
<ellipse rx="3.16462" ry="3.16449" transform="matrix(-1 0 0 1 25.476 22.2202)" fill="#265FFF"/>
<ellipse rx="1.87564" ry="1.9348" transform="matrix(-1 0 0 1 20.6751 29.6662)" fill="#265FFF"/>
<ellipse rx="1.46667" ry="1.40739" transform="matrix(-1 0 0 1 18.8556 35.4728)" fill="#265FFF"/>
<ellipse cx="22.7841" cy="50.9456" rx="5.45184" ry="5.45205" transform="rotate(-90 22.7841 50.9456)" fill="#FFBA37"/>
<ellipse cx="25.5404" cy="38.2225" rx="4.45624" ry="4.4564" transform="rotate(-90 25.5404 38.2225)" fill="#FFBA37"/>
<ellipse cx="32.2213" cy="29.316" rx="3.1645" ry="3.16462" transform="rotate(-90 32.2213 29.316)" fill="#FFBA37"/>
<ellipse cx="39.6672" cy="24.5101" rx="1.87564" ry="1.9348" transform="rotate(-90 39.6672 24.5101)" fill="#FFBA37"/>
<ellipse cx="45.468" cy="22.6906" rx="1.46662" ry="1.40744" transform="rotate(-90 45.468 22.6906)" fill="#FFBA37"/>
<ellipse rx="4.45625" ry="4.45641" transform="matrix(0 -1 -1 0 25.5377 63.6629)" fill="#FFBA37"/>
<ellipse rx="3.1645" ry="3.16462" transform="matrix(0 -1 -1 0 32.2201 72.5757)" fill="#FFBA37"/>
<ellipse rx="1.87556" ry="1.93487" transform="matrix(0 -1 -1 0 39.6667 77.3813)" fill="#FFBA37"/>
<ellipse rx="1.46661" ry="1.40744" transform="matrix(0 -1 -1 0 45.4715 79.2004)" fill="#FFBA37"/>
<ellipse rx="5.45204" ry="5.45183" transform="matrix(1 0 0 -1 60.9462 75.1556)" fill="#34A853"/>
<ellipse rx="4.45642" ry="4.45623" transform="matrix(1 0 0 -1 73.6634 72.4012)" fill="#34A853"/>
<ellipse rx="3.16461" ry="3.16449" transform="matrix(1 0 0 -1 82.5767 65.7164)" fill="#34A853"/>
<ellipse rx="1.87564" ry="1.9348" transform="matrix(1 0 0 -1 87.3874 58.2703)" fill="#34A853"/>
<ellipse rx="1.46667" ry="1.40738" transform="matrix(1 0 0 -1 89.1991 52.4696)" fill="#34A853"/>
<ellipse cx="48.2233" cy="72.4012" rx="4.45641" ry="4.45623" transform="rotate(-180 48.2233 72.4012)" fill="#34A853"/>
<ellipse cx="39.3158" cy="65.7164" rx="3.16463" ry="3.16449" transform="rotate(-180 39.3158 65.7164)" fill="#34A853"/>
<ellipse cx="34.5072" cy="58.2703" rx="1.87564" ry="1.9348" transform="rotate(-180 34.5072 58.2703)" fill="#34A853"/>
<ellipse cx="32.6935" cy="52.4686" rx="1.46667" ry="1.40738" transform="rotate(-180 32.6935 52.4686)" fill="#34A853"/>
<path d="M9.0001 96.1484L15.1616 96.1389C16.8483 96.1364 17.9844 96.2329 19.0866 96.6246C21.3254 97.4078 23.0497 99.175 23.0546 101.928C23.058 103.829 22.1662 105.568 19.4832 106.654C22.9265 107.271 25.0992 109.529 25.1043 112.381C25.1108 116.019 21.9468 117.565 20.5363 118.026C19.1602 118.487 18.0588 118.488 15.5459 118.492L9.04013 118.502L9 96.1485L9.0001 96.1484ZM14.5816 98.9914L12.3442 98.9948L12.3563 105.714L14.5937 105.711C15.4543 105.709 16.9343 105.641 17.7596 105.181C18.413 104.853 19.5817 103.966 19.5785 102.196C19.5763 100.95 18.9547 99.8696 17.9213 99.4123C16.9567 98.9877 15.5798 98.9898 14.5815 98.9913L14.5816 98.9914ZM15.5283 108.594L12.3615 108.598L12.3741 115.645L15.7131 115.64C16.6769 115.639 18.3292 115.636 19.1892 115.307C20.9091 114.682 21.6295 113.271 21.6273 112.091C21.6256 111.141 21.1412 109.732 19.3844 109.046C18.4888 108.687 17.3527 108.591 15.5284 108.594L15.5283 108.594Z" fill="#4285F2"/>
<path d="M28.354 97.6085C29.4135 97.6069 30.2271 98.3941 30.2287 99.3141C30.2304 100.234 29.3843 101.057 28.3602 101.058C27.1595 101.06 26.5219 100.043 26.5206 99.3198C26.5192 98.4984 27.2945 97.6101 28.354 97.6085V97.6085ZM29.9544 103.816L29.9808 118.567L26.8378 118.572L26.8114 103.821L29.9544 103.816Z" fill="#EB4137"/>
<path d="M37.3254 100.375L37.3309 103.427L42.1348 103.42L42.1395 106.045L37.3356 106.052L37.3472 112.484C37.3843 114.322 37.4187 114.65 37.8933 115.174C38.4695 115.764 39.2138 115.796 39.5183 115.795C40.1272 115.794 41.2773 115.727 42.9333 114.74L42.9382 117.464C41.5187 118.221 39.929 118.453 39.0494 118.454C38.0007 118.456 36.1392 118.032 35.0879 116.59C34.3417 115.508 34.3388 113.933 34.3364 112.587L34.3247 106.057L31.686 106.061L31.6854 105.766L37.3254 100.375L37.3254 100.375Z" fill="#FBBD06"/>
<path d="M47.3912 96.0871L47.4065 104.647C47.9198 104.291 49.3571 103.32 51.6528 103.316C55.7644 103.31 58.2716 106.633 58.2789 110.704C58.2881 115.807 54.5581 118.43 50.3437 118.436C48.3907 118.439 45.8544 117.991 44.3799 117.315L44.3418 96.0918L47.3913 96.0871L47.3912 96.0871ZM47.4115 107.393L47.4255 115.243C48.6596 115.596 50.1331 115.691 50.6471 115.69C52.463 115.687 55.2019 114.455 55.1954 110.837C55.1895 107.575 53.0623 105.963 50.8694 105.966C49.1562 105.969 48.0271 106.875 47.4113 107.393L47.4115 107.393Z" fill="#4285F2"/>
<path d="M72.9353 115.844L72.9385 117.636C71.5355 118.535 70.9535 118.801 69.9943 118.802C68.6581 118.805 67.9378 118.341 67.6618 117.279C66.3275 118.31 64.9238 118.81 63.519 118.812C61.2579 118.816 59.7474 117.093 59.7439 115.168C59.7386 112.214 62.5121 111.314 64.9773 110.447L67.6822 109.513L67.6808 108.717C67.6774 106.858 66.751 106.096 64.901 106.099C63.2222 106.102 61.5106 106.868 60.0405 108.563L60.0347 105.343C61.2313 103.981 62.9089 103.314 65.1359 103.311C68.2536 103.306 70.723 104.829 70.7291 108.214L70.7428 115.881C70.7438 116.445 70.9497 116.644 71.3266 116.643C71.6349 116.643 72.2511 116.343 72.9354 115.844L72.9353 115.844ZM67.6928 115.487L67.685 111.14C65.0827 112.006 62.8232 112.873 62.8264 114.632C62.8286 115.86 63.7551 116.721 65.0228 116.719C65.9821 116.718 66.872 116.252 67.6928 115.487Z" fill="#34A853"/>
<path d="M74.3521 103.99L77.288 103.986L77.2941 107.382C78.248 105.897 79.6296 103.685 81.7077 103.682C82.1365 103.681 83.456 103.712 85.1744 105.358L83.6286 107.932C83.265 107.57 81.9436 106.484 80.7891 106.486C79.7005 106.488 77.2946 107.678 77.3006 111.042L77.3145 118.79L74.3787 118.794L74.3521 103.99L74.3521 103.99Z" fill="#EB4237"/>
<path d="M99.4889 103.652L99.493 105.923L96.363 105.928C97.5559 107.079 97.9656 107.901 97.9678 109.152C97.97 110.37 97.2581 111.787 96.5449 112.479C94.5074 114.589 90.3549 113.542 90.358 115.287C90.3595 116.11 91.9594 116.602 95.0224 117.189C98.2896 117.81 99.4493 119.421 99.4527 121.298C99.4579 124.228 96.7734 126.01 92.2486 126.017C88.132 126.023 85.2028 124.151 85.1981 121.55C85.1942 119.377 86.3827 118.092 89.0352 117.462C87.9795 116.838 87.5021 116.246 87.5009 115.588C87.4992 114.633 88.4504 113.809 89.9127 113.477L89.9126 113.411C88.7891 112.952 87.9374 112.328 87.3577 111.539C86.8119 110.782 86.5381 109.861 86.5362 108.775C86.5305 105.614 89.0786 103.668 93.1953 103.661L99.4893 103.652L99.4889 103.652ZM95.2454 108.794C95.2429 107.379 93.8798 106.195 92.2809 106.198C90.6139 106.201 89.2551 107.421 89.2577 108.869C89.2606 110.482 90.4874 111.567 92.3245 111.564C94.0256 111.561 95.2483 110.407 95.2454 108.794ZM96.5271 121.533C96.5237 119.656 93.3928 119.167 91.5217 119.17C89.4804 119.173 88.0531 120.097 88.0555 121.414C88.0581 122.896 89.5565 123.683 92.3123 123.679C94.966 123.675 96.5296 122.883 96.5272 121.533L96.5271 121.533Z" fill="#FBBD07"/>
</svg>
